<?xml version="1.0" encoding="UTF-8" standalone="no"?>
<!-- Created with Inkscape (http://www.inkscape.org/) -->

<svg
   xmlns:dc="http://purl.org/dc/elements/1.1/"
   xmlns:cc="http://creativecommons.org/ns#"
   xmlns:rdf="http://www.w3.org/1999/02/22-rdf-syntax-ns#"
   xmlns:svg="http://www.w3.org/2000/svg"
   xmlns="http://www.w3.org/2000/svg"
   xmlns:sodipodi="http://sodipodi.sourceforge.net/DTD/sodipodi-0.dtd"
   xmlns:inkscape="http://www.inkscape.org/namespaces/inkscape"
   id="svg2995"
   version="1.1"
   inkscape:version="0.48.5 r10040"
   width="250"
   height="280"
   sodipodi:docname="Chat.svg">
  <metadata
     id="metadata3001">
    <rdf:RDF>
      <cc:Work
         rdf:about="">
        <dc:format>image/svg+xml</dc:format>
        <dc:type
           rdf:resource="http://purl.org/dc/dcmitype/StillImage" />
        <dc:title />
      </cc:Work>
    </rdf:RDF>
  </metadata>
  <defs
     id="defs2999" />
  <sodipodi:namedview
     pagecolor="#ffffff"
     bordercolor="#666666"
     borderopacity="1"
     objecttolerance="10"
     gridtolerance="10"
     guidetolerance="10"
     inkscape:pageopacity="0"
     inkscape:pageshadow="2"
     inkscape:window-width="1600"
     inkscape:window-height="847"
     id="namedview2997"
     showgrid="false"
     inkscape:zoom="1"
     inkscape:cx="132"
     inkscape:cy="211.11537"
     inkscape:window-x="-8"
     inkscape:window-y="-8"
     inkscape:window-maximized="1"
     inkscape:current-layer="layer5"
     showguides="true"
     inkscape:guide-bbox="true" />
  <g
     inkscape:groupmode="layer"
     id="layer3"
     inkscape:label="Patte arrière droite"
     transform="translate(0,151)">
    <path
       style="fill:#ffffff;fill-opacity:1;stroke:#000000;stroke-width:3;stroke-linecap:butt;stroke-linejoin:round;stroke-miterlimit:4;stroke-opacity:1;stroke-dasharray:none;display:inline"
       d="m 167.2,29.3 c -0.84827,18.54453 -15.04543,45.93118 -24.4,46 -11.33333,1.4 -15.26667,7.2 -27.8,6.4 -7.33333,-0.0667 -9.26667,-11.53333 -2.6,-11.4 11.53333,1 28.06667,-2.8 30.2,-8.2 -0.26667,-11.53333 -0.53333,-23.06667 -0.8,-34.6 10.06667,-4.8 18.93333,-5.4 25.4,1.8 z"
       id="path3001"
       inkscape:connector-curvature="0"
       sodipodi:nodetypes="ccccccc" />
  </g>
  <g
     inkscape:groupmode="layer"
     id="layer4"
     inkscape:label="Patte avant droite"
     transform="translate(0,151)">
    <path
       style="fill:#ffffff;fill-opacity:1;stroke:#000000;stroke-width:3;stroke-linecap:butt;stroke-linejoin:round;stroke-miterlimit:4;stroke-opacity:1;stroke-dasharray:none"
       d="m 76.8,-25.6 c -18.133333,-3.133333 -36.466667,-24.666667 -52.8,-25 -14.53333,3.733333 -9.06667,18.666667 0.6,10.6 19.466667,2.933333 21.333333,23.266667 47,30.8 9.6,-10.933333 8.4,-11.066667 5.2,-16.4 z"
       id="path3791"
       inkscape:connector-curvature="0"
       sodipodi:nodetypes="ccccc" />
  </g>
  <g
     inkscape:groupmode="layer"
     id="layer2"
     inkscape:label="Corps"
     style="display:inline"
     transform="translate(0,151)">
    <path
       style="fill:#ffffff;fill-opacity:1;stroke:#000000;stroke-width:3;stroke-linecap:round;stroke-linejoin:round;stroke-miterlimit:4;stroke-opacity:1;stroke-dasharray:none"
       d="m 106.2,-120.6 c 7.93333,-1.13333 13.06667,10.93333 14.6,20.4 0.53333,21.2 2.86667,39.8 7.4,57.2 1.86667,6.466667 8.93333,10.733333 20,16.8 11.89676,6.45137 31.83008,3.651193 44.6,12.2 6.33333,5 7.26667,12.2 15.8,14.8 6.04676,-0.898263 14.87619,-26.659521 3,-39.4 -12.4,-11.466667 -16.4,-16.133333 -22.4,-30.2 -4.2,-13.133333 0,-28.866667 2.4,-32 3.33333,-8.06667 16.26667,-18.53333 23,-15 3.86667,1.26667 4.33333,5.33333 3.2,7 -8.8,2.26667 -15.8,7.13333 -19.8,14.8 -3,4.4 -1.8,15.2 0.8,20 2.73867,5.805341 15.7198,23.053132 28,35.6 7.67229,7.125703 9.1262,46.424108 -11.8,54 -4.4,9.13333 -3,11.66667 -10,19 1.4,8.86667 0.8,10.93333 -0.2,20.6 8.29874,1.14977 6.80817,9.84194 6.4784,15.71269 C 211.1994,85.65062 211.13882,88.48782 210.8,98 c -3.4,13.6 -11.8,17.4 -21,25.4 -5.06667,2.46667 -13.73333,-4.06667 -10.8,-10.6 2.13333,-3.93333 12.26667,-1.86667 17,-8.8 C 206.59914,85.20512 192.28799,71.40482 177.6,63.2 169,54.46667 166.6,43.93333 165.8,27.8 150.53333,30.93333 132.86667,31.86667 120,27 99.32976,17.142859 85.238748,1.789998 71.8,-17.4 65.339813,-28.448457 82.211681,-50.070442 82.6,-63.2 82.266667,-71.866667 82.333333,-72.133333 82,-80.8"
       id="path3804"
       inkscape:connector-curvature="0"
       sodipodi:nodetypes="cccccccccccccccccccccccccccc" />
  </g>
  <g
     inkscape:groupmode="layer"
     id="layer5"
     inkscape:label="Patte avant gauche"
     transform="translate(0,151)">
    <path
       style="fill:#ffffff;fill-opacity:1;stroke:#000000;stroke-width:3;stroke-linecap:round;stroke-linejoin:round;stroke-miterlimit:4;stroke-opacity:1;stroke-dasharray:none"
       d="M 120,-4.6 C 110.93333,-4.333333 110.66667,9.133333 94.4,9.6 82.466667,4.666667 40.533333,-2.666667 36,4.2 27.42028,12.830208 19.88842,7.053761 24.2,-2.2 c 4.3756,-8.736873 46.130944,-1.430496 49,-8.2 4.2,-6 14.4,-8.2 21.2,-6"
       id="path3794"
       inkscape:connector-curvature="0"
       sodipodi:nodetypes="cccccc" />
  </g>
  <g
     inkscape:groupmode="layer"
     id="layer6"
     inkscape:label="Tête"
     transform="translate(0,151)">
    <path
       style="fill:#ffffff;fill-opacity:1;stroke:#000000;stroke-width:3;stroke-linecap:round;stroke-linejoin:round;stroke-miterlimit:4;stroke-opacity:1;stroke-dasharray:none"
       d="m 90.4,-87 c -8.509204,7.236566 -34.069473,4.845053 -30.8,-3.4 9.346627,-1.880899 18.661244,4.202999 19.8,-8 -14.481177,0.565963 -26.342739,2.929138 -26.8,-5.8 12.533333,-7.46667 14.266667,-16.93333 24.2,-22.6 3.677482,-2.79646 25.20856,-5.4361 36,8.6"
       id="path3797"
       inkscape:connector-curvature="0"
       sodipodi:nodetypes="cccccc" />
    <path
       style="fill:#ffffff;fill-opacity:1;stroke:#000000;stroke-width:3;stroke-linecap:round;stroke-linejoin:round;stroke-miterlimit:4;stroke-opacity:1;stroke-dasharray:none"
       d="m 83.8,-80.2 c 5,0.333333 9,-2.333333 12,-5.6"
       id="path3799"
       inkscape:connector-curvature="0"
       sodipodi:nodetypes="cc" />
    <path
       style="fill:#000000;fill-opacity:1;stroke:#000000;stroke-width:1;stroke-linecap:round;stroke-linejoin:round;stroke-miterlimit:4;stroke-opacity:1;stroke-dasharray:none"
       d="m 72.659027,-112.08383 c 3.635714,-2.45911 7.879084,-3.52421 11.638957,-2.92142 -1.614187,2.87962 -2.09666,3.49046 -5.440572,4.61332 -3.29846,0.26449 -4.789137,0.12568 -6.198385,-1.6919 z"
       id="path3801"
       inkscape:connector-curvature="0"
       sodipodi:nodetypes="cccc" />
    <path
       style="fill:#ffffff;fill-opacity:1;stroke:#000000;stroke-width:3;stroke-linecap:round;stroke-linejoin:round;stroke-miterlimit:4;stroke-opacity:1;stroke-dasharray:none"
       d="m 92.25,-121.875 c 8.5619,-0.98244 7.68188,-14.8058 12.25,-20.5 0.75,7.25 3,14.5 5.25,21.5"
       id="path3803"
       inkscape:connector-curvature="0"
       sodipodi:nodetypes="ccc" />
    <path
       style="fill:#ffffff;fill-opacity:1;stroke:#000000;stroke-width:3;stroke-linecap:round;stroke-linejoin:round;stroke-miterlimit:4;stroke-opacity:1;stroke-dasharray:none"
       d="m 74.325,-125.15 c 4.916667,-2.41667 5.383333,-8.55833 6.3,-14.225 1.351345,3.62876 4.16004,6.93939 6.5,11.625"
       id="path3805"
       inkscape:connector-curvature="0"
       sodipodi:nodetypes="ccc" />
  </g>
</svg>
